<svg width="24" height="24" viewBox="0 0 24 24" fill="none" xmlns="http://www.w3.org/2000/svg">
<g clip-path="url(#clip0_504_2)">
<path d="M19.281 0.219224C19.1403 0.0786203 18.9496 -0.000366211 18.7507 -0.000366211C18.5518 -0.000366211 18.3611 0.0786203 18.2205 0.219224L15.75 2.68972L21.3105 8.25022L23.781 5.78122C23.8508 5.71156 23.9062 5.62879 23.944 5.53767C23.9818 5.44656 24.0013 5.34887 24.0013 5.25022C24.0013 5.15157 23.9818 5.05389 23.944 4.96277C23.9062 4.87166 23.8508 4.78889 23.781 4.71922L19.281 0.219224V0.219224ZM20.25 9.31072L14.6895 3.75022L4.93945 13.5002H5.24995C5.44887 13.5002 5.63963 13.5792 5.78028 13.7199C5.92094 13.8605 5.99995 14.0513 5.99995 14.2502V15.0002H6.74995C6.94887 15.0002 7.13963 15.0792 7.28028 15.2199C7.42094 15.3605 7.49995 15.5513 7.49995 15.7502V16.5002H8.24995C8.44887 16.5002 8.63963 16.5792 8.78028 16.7199C8.92094 16.8605 8.99995 17.0513 8.99995 17.2502V18.0002H9.74995C9.94887 18.0002 10.1396 18.0792 10.2803 18.2199C10.4209 18.3605 10.5 18.5513 10.5 18.7502V19.0607L20.25 9.31072V9.31072ZM9.04795 20.5127C9.01639 20.4288 9.00013 20.3399 8.99995 20.2502V19.5002H8.24995C8.05104 19.5002 7.86028 19.4212 7.71962 19.2806C7.57897 19.1399 7.49995 18.9491 7.49995 18.7502V18.0002H6.74995C6.55104 18.0002 6.36028 17.9212 6.21962 17.7806C6.07897 17.6399 5.99995 17.4491 5.99995 17.2502V16.5002H5.24995C5.05104 16.5002 4.86028 16.4212 4.71962 16.2806C4.57897 16.1399 4.49995 15.9491 4.49995 15.7502V15.0002H3.74995C3.66028 15.0001 3.57137 14.9838 3.48745 14.9522L3.21895 15.2192C3.14748 15.2912 3.09135 15.3769 3.05395 15.4712L0.0539533 22.9712C-0.00060275 23.1075 -0.013958 23.2568 0.0155432 23.4006C0.0450444 23.5445 0.116105 23.6765 0.219914 23.7803C0.323724 23.8841 0.455718 23.9551 0.599533 23.9846C0.743347 24.0141 0.892657 24.0008 1.02895 23.9462L8.52895 20.9462C8.62325 20.9088 8.70898 20.8527 8.78095 20.7812L9.04795 20.5142V20.5127Z" fill="url(#paint0_linear_504_2)"/>
</g>
<defs>
<linearGradient id="paint0_linear_504_2" x1="12.0008" y1="-0.000366211" x2="12.0008" y2="23.9999" gradientUnits="userSpaceOnUse">
<stop stop-color="#2D29F8"/>
<stop offset="1" stop-color="#0ADDDD"/>
</linearGradient>
<clipPath id="clip0_504_2">
<rect width="24" height="24" fill="white"/>
</clipPath>
</defs>
</svg>
