<svg width="24" height="24" viewBox="0 0 24 24" fill="none" xmlns="http://www.w3.org/2000/svg">
<path d="M2.72727 0C1.23375 0 0 1.23375 0 2.72727V21.2727C0 22.7663 1.23375 24 2.72727 24H21.2727C22.7663 24 24 22.7663 24 21.2727V2.72727C24 1.23375 22.7663 0 21.2727 0H2.72727ZM2.72727 2.18182H21.2727C21.5858 2.18182 21.8182 2.41425 21.8182 2.72727V21.2727C21.8182 21.5858 21.5858 21.8182 21.2727 21.8182H2.72727C2.41425 21.8182 2.18182 21.5858 2.18182 21.2727V2.72727C2.18182 2.41425 2.41425 2.18182 2.72727 2.18182ZM5.93182 4.05682C4.89545 4.05682 4.05682 4.89655 4.05682 5.93182C4.05682 6.96709 4.89436 7.80682 5.93182 7.80682C6.966 7.80682 7.80682 6.96709 7.80682 5.93182C7.80682 4.89764 6.966 4.05682 5.93182 4.05682ZM15.7841 9.03409C14.2186 9.03409 13.1798 9.89073 12.75 10.7045H12.6818V9.27273H9.61364V19.6364H12.8182V14.5227C12.8182 13.1722 13.0868 11.8636 14.7614 11.8636C16.4119 11.8636 16.4318 13.3898 16.4318 14.5909V19.6364H19.6364V13.9432C19.6364 11.1548 19.0426 9.03409 15.7841 9.03409ZM4.36364 9.27273V19.6364H7.60227V9.27273H4.36364Z" fill="url(#paint0_linear_603_9)"/>
<defs>
<linearGradient id="paint0_linear_603_9" x1="12" y1="0" x2="12" y2="24" gradientUnits="userSpaceOnUse">
<stop stop-color="#2D29F8"/>
<stop offset="1" stop-color="#0ADDDD"/>
</linearGradient>
</defs>
</svg>
