<svg width="289" height="41" viewBox="0 0 289 41" fill="none" xmlns="http://www.w3.org/2000/svg">
<path d="M3.16807 9.66401H0.768066V6.49601H14.8801V9.66401H11.0401L15.4081 23.872L18.2401 34.144H18.5281L21.5521 23.872L26.0641 9.66401H22.2241V6.49601H32.5441V9.66401H30.1441L19.9681 40H13.3441L3.16807 9.66401Z" fill="black"/>
<path d="M40.6467 11.536C39.3027 11.536 38.2467 11.168 37.4787 10.432C36.7427 9.69601 36.3747 8.70401 36.3747 7.45601V7.21601C36.3747 5.96801 36.7427 4.97601 37.4787 4.24001C38.2467 3.50401 39.3027 3.13601 40.6467 3.13601C41.9907 3.13601 43.0307 3.50401 43.7667 4.24001C44.5347 4.97601 44.9187 5.96801 44.9187 7.21601V7.45601C44.9187 8.70401 44.5347 9.69601 43.7667 10.432C43.0307 11.168 41.9907 11.536 40.6467 11.536ZM34.1667 36.832H37.0467V19.696L34.1667 19.072V16.336L44.3427 14.272V36.832H47.2227V40H34.1667V36.832Z" fill="black"/>
<path d="M62.5808 40.576C60.5648 40.576 58.7888 40.24 57.2528 39.568C55.7488 38.896 54.4688 37.968 53.4128 36.784C52.3888 35.6 51.6048 34.208 51.0608 32.608C50.5488 31.008 50.2928 29.264 50.2928 27.376C50.2928 25.264 50.6288 23.408 51.3008 21.808C51.9728 20.176 52.8848 18.8 54.0368 17.68C55.2208 16.56 56.5968 15.712 58.1648 15.136C59.7648 14.56 61.4768 14.272 63.3008 14.272C66.2448 14.272 68.5008 14.88 70.0688 16.096C71.6688 17.312 72.4688 18.848 72.4688 20.704C72.4688 21.92 72.1328 22.896 71.4608 23.632C70.7888 24.336 69.8608 24.688 68.6768 24.688C67.4928 24.688 66.5808 24.384 65.9408 23.776C65.3008 23.136 64.9808 22.304 64.9808 21.28C64.9808 20.448 65.1888 19.76 65.6048 19.216C66.0528 18.672 66.5488 18.272 67.0928 18.016V17.728C66.7728 17.632 66.3888 17.536 65.9408 17.44C65.5248 17.344 64.9488 17.296 64.2128 17.296C62.2608 17.296 60.7408 17.92 59.6528 19.168C58.5648 20.384 58.0208 22.144 58.0208 24.448V29.44C58.0208 31.552 58.5168 33.168 59.5088 34.288C60.5008 35.376 61.8768 35.92 63.6368 35.92C65.4288 35.92 66.8528 35.504 67.9088 34.672C68.9648 33.84 69.7168 32.864 70.1648 31.744L72.8528 33.328C72.5648 34.128 72.1488 34.96 71.6048 35.824C71.0928 36.688 70.4208 37.472 69.5888 38.176C68.7568 38.88 67.7648 39.456 66.6128 39.904C65.4608 40.352 64.1168 40.576 62.5808 40.576Z" fill="black"/>
<path d="M84.0923 40.48C82.1723 40.48 80.7483 40.064 79.8203 39.232C78.9243 38.368 78.4763 37.104 78.4763 35.44V18.208H75.1163V14.848H76.4123C77.4683 14.848 78.2363 14.624 78.7163 14.176C79.2283 13.696 79.7083 12.992 80.1563 12.064L82.1723 7.88801H85.7723V14.848H91.2923V18.208H85.7723V36.736H91.2923V39.568C90.7803 39.792 89.8683 40 88.5563 40.192C87.2443 40.384 85.7563 40.48 84.0923 40.48Z" fill="black"/>
<path d="M106.031 37.12C108.975 37.12 110.447 35.36 110.447 31.84V23.008C110.447 19.488 108.975 17.728 106.031 17.728C103.087 17.728 101.615 19.488 101.615 23.008V31.84C101.615 35.36 103.087 37.12 106.031 37.12ZM106.031 40.576C104.207 40.576 102.543 40.288 101.039 39.712C99.5666 39.104 98.2866 38.24 97.1986 37.12C96.1426 36 95.3266 34.624 94.7506 32.992C94.1746 31.36 93.8866 29.504 93.8866 27.424C93.8866 25.344 94.1746 23.488 94.7506 21.856C95.3266 20.224 96.1426 18.848 97.1986 17.728C98.2866 16.608 99.5666 15.76 101.039 15.184C102.543 14.576 104.207 14.272 106.031 14.272C107.855 14.272 109.503 14.576 110.975 15.184C112.479 15.76 113.759 16.608 114.815 17.728C115.903 18.848 116.735 20.224 117.311 21.856C117.887 23.488 118.175 25.344 118.175 27.424C118.175 29.504 117.887 31.36 117.311 32.992C116.735 34.624 115.903 36 114.815 37.12C113.759 38.24 112.479 39.104 110.975 39.712C109.503 40.288 107.855 40.576 106.031 40.576Z" fill="black"/>
<path d="M121.776 36.832H124.656V19.696L121.776 19.072V16.336L131.808 14.272V19.024H132C132.448 17.68 133.168 16.56 134.16 15.664C135.152 14.736 136.448 14.272 138.048 14.272C139.616 14.272 140.848 14.704 141.744 15.568C142.64 16.4 143.088 17.552 143.088 19.024C143.088 20.304 142.752 21.312 142.08 22.048C141.408 22.784 140.464 23.152 139.248 23.152C138.096 23.152 137.216 22.848 136.608 22.24C136 21.6 135.696 20.848 135.696 19.984C135.696 19.6 135.776 19.248 135.936 18.928C136.096 18.608 136.288 18.4 136.512 18.304L136.464 18.064C136.368 18.032 136.224 18.016 136.032 18.016C135.52 18.016 135.024 18.16 134.544 18.448C134.064 18.736 133.632 19.104 133.248 19.552C132.864 20 132.544 20.496 132.288 21.04C132.064 21.584 131.952 22.112 131.952 22.624V36.832H135.792V40H121.776V36.832Z" fill="black"/>
<path d="M172.252 40.576C169.852 40.576 167.724 40.144 165.868 39.28C164.044 38.384 162.492 37.168 161.212 35.632C159.932 34.064 158.956 32.224 158.284 30.112C157.644 28 157.324 25.728 157.324 23.296C157.324 20.48 157.708 17.984 158.476 15.808C159.276 13.632 160.332 11.824 161.644 10.384C162.956 8.91201 164.476 7.80801 166.204 7.07201C167.964 6.30401 169.788 5.92001 171.676 5.92001C172.7 5.92001 173.596 6.03201 174.364 6.25601C175.164 6.44801 175.852 6.70401 176.428 7.02401C177.004 7.34401 177.484 7.71201 177.868 8.12801C178.252 8.51201 178.54 8.89601 178.732 9.28001H179.02V6.49601H184.588V17.152H179.02V14.992C179.02 13.36 178.476 12.048 177.388 11.056C176.332 10.064 174.78 9.56801 172.732 9.56801C170.588 9.56801 168.908 10.24 167.692 11.584C166.476 12.928 165.868 15.04 165.868 17.92V27.664C165.868 29.168 166.06 30.448 166.444 31.504C166.828 32.56 167.356 33.44 168.028 34.144C168.732 34.848 169.548 35.36 170.476 35.68C171.436 36 172.476 36.16 173.596 36.16C175.644 36.16 177.372 35.632 178.78 34.576C180.22 33.488 181.308 32.032 182.044 30.208L184.78 31.792C184.364 33.008 183.772 34.16 183.004 35.248C182.236 36.304 181.308 37.232 180.22 38.032C179.164 38.832 177.964 39.456 176.62 39.904C175.276 40.352 173.82 40.576 172.252 40.576Z" fill="black"/>
<path d="M200.393 40.576C198.409 40.576 196.649 40.256 195.113 39.616C193.609 38.944 192.329 38.032 191.273 36.88C190.249 35.696 189.465 34.304 188.921 32.704C188.377 31.072 188.105 29.296 188.105 27.376C188.105 25.36 188.377 23.536 188.921 21.904C189.497 20.272 190.297 18.896 191.321 17.776C192.377 16.656 193.625 15.792 195.065 15.184C196.537 14.576 198.169 14.272 199.961 14.272C201.753 14.272 203.369 14.544 204.809 15.088C206.249 15.632 207.465 16.416 208.457 17.44C209.481 18.432 210.265 19.648 210.809 21.088C211.353 22.528 211.625 24.128 211.625 25.888V27.52H195.833V29.44C195.833 31.584 196.393 33.2 197.513 34.288C198.633 35.376 200.121 35.92 201.977 35.92C203.705 35.92 205.097 35.536 206.153 34.768C207.209 33.968 207.961 33.008 208.409 31.888L211.049 33.472C210.761 34.272 210.345 35.088 209.801 35.92C209.257 36.752 208.553 37.52 207.689 38.224C206.825 38.896 205.785 39.456 204.569 39.904C203.353 40.352 201.961 40.576 200.393 40.576ZM195.833 24.496H204.089V23.824C204.089 21.52 203.721 19.904 202.985 18.976C202.249 18.048 201.241 17.584 199.961 17.584C198.681 17.584 197.673 18.048 196.937 18.976C196.201 19.904 195.833 21.52 195.833 23.824V24.496ZM197.657 11.008L201.113 0.928009L207.353 3.95201L200.009 12.064L197.657 11.008Z" fill="black"/>
<path d="M226.141 40.576C224.381 40.576 223.037 40.256 222.109 39.616C221.181 38.944 220.589 38.208 220.333 37.408H220.141V40H215.437V32.512H220.141V33.28C220.141 34.528 220.525 35.472 221.293 36.112C222.061 36.752 223.309 37.072 225.037 37.072C226.573 37.072 227.693 36.832 228.397 36.352C229.101 35.872 229.453 35.136 229.453 34.144C229.453 33.344 229.197 32.736 228.685 32.32C228.173 31.872 227.325 31.472 226.141 31.12L223.885 30.496C221.101 29.728 219.037 28.704 217.693 27.424C216.381 26.112 215.725 24.352 215.725 22.144C215.725 19.616 216.557 17.68 218.221 16.336C219.885 14.96 222.077 14.272 224.797 14.272C226.493 14.272 227.789 14.592 228.685 15.232C229.581 15.872 230.157 16.592 230.413 17.392H230.605V14.848H235.309V22.336H230.605V21.472C230.605 20.256 230.221 19.344 229.453 18.736C228.717 18.096 227.501 17.776 225.805 17.776C223.373 17.776 222.157 18.656 222.157 20.416C222.157 21.248 222.397 21.92 222.877 22.432C223.389 22.944 224.301 23.36 225.613 23.68L227.677 24.208C229.021 24.56 230.205 24.96 231.229 25.408C232.253 25.856 233.101 26.4 233.773 27.04C234.477 27.648 235.005 28.4 235.357 29.296C235.709 30.16 235.885 31.2 235.885 32.416C235.885 35.072 234.989 37.104 233.197 38.512C231.405 39.888 229.053 40.576 226.141 40.576Z" fill="black"/>
<path d="M247.204 40.576C244.484 40.576 242.5 39.952 241.252 38.704C240.036 37.424 239.428 35.648 239.428 33.376C239.428 28.416 243.092 25.936 250.42 25.936H253.78V23.2C253.78 21.248 253.412 19.776 252.676 18.784C251.94 17.792 250.66 17.296 248.836 17.296C248.164 17.296 247.588 17.344 247.108 17.44C246.628 17.536 246.212 17.664 245.86 17.824V18.064C246.18 18.224 246.484 18.512 246.772 18.928C247.092 19.344 247.252 19.904 247.252 20.608C247.252 21.568 246.948 22.384 246.34 23.056C245.732 23.696 244.82 24.016 243.604 24.016C242.644 24.016 241.844 23.68 241.204 23.008C240.564 22.336 240.244 21.488 240.244 20.464C240.244 19.696 240.468 18.944 240.916 18.208C241.364 17.44 242.036 16.768 242.932 16.192C243.828 15.616 244.932 15.152 246.244 14.8C247.588 14.448 249.124 14.272 250.852 14.272C254.34 14.272 256.916 15.024 258.58 16.528C260.244 18 261.076 20.096 261.076 22.816V36.832H263.956V39.568C263.412 39.888 262.708 40.128 261.844 40.288C260.98 40.48 260.084 40.576 259.156 40.576C257.396 40.576 256.148 40.176 255.412 39.376C254.708 38.544 254.356 37.52 254.356 36.304V36.208H254.068C253.844 36.752 253.556 37.28 253.204 37.792C252.884 38.304 252.452 38.768 251.908 39.184C251.396 39.6 250.756 39.936 249.988 40.192C249.22 40.448 248.292 40.576 247.204 40.576ZM249.94 36.256C251.124 36.256 252.052 35.984 252.724 35.44C253.428 34.896 253.78 33.952 253.78 32.608V28.816H251.188C249.652 28.816 248.5 29.136 247.732 29.776C246.996 30.416 246.628 31.328 246.628 32.512V33.28C246.628 34.304 246.932 35.056 247.54 35.536C248.148 36.016 248.948 36.256 249.94 36.256Z" fill="black"/>
<path d="M267.042 36.832H269.922V19.696L267.042 19.072V16.336L277.074 14.272V19.024H277.266C277.714 17.68 278.434 16.56 279.426 15.664C280.418 14.736 281.714 14.272 283.314 14.272C284.882 14.272 286.114 14.704 287.01 15.568C287.906 16.4 288.354 17.552 288.354 19.024C288.354 20.304 288.018 21.312 287.346 22.048C286.674 22.784 285.73 23.152 284.514 23.152C283.362 23.152 282.482 22.848 281.874 22.24C281.266 21.6 280.962 20.848 280.962 19.984C280.962 19.6 281.042 19.248 281.202 18.928C281.362 18.608 281.554 18.4 281.778 18.304L281.73 18.064C281.634 18.032 281.49 18.016 281.298 18.016C280.786 18.016 280.29 18.16 279.81 18.448C279.33 18.736 278.898 19.104 278.514 19.552C278.13 20 277.81 20.496 277.554 21.04C277.33 21.584 277.218 22.112 277.218 22.624V36.832H281.058V40H267.042V36.832Z" fill="black"/>
</svg>
