<svg width="255" height="37" viewBox="0 0 255 37" fill="none" xmlns="http://www.w3.org/2000/svg">
<path d="M11.904 3.216C9.63196 4.08 7.87196 5.424 6.62396 7.248C5.37596 9.04 4.75196 11.248 4.75196 13.872C4.75196 15.056 4.86396 15.888 5.08796 16.368C5.31196 16.816 5.42396 17.072 5.42396 17.136C3.69596 17.136 2.39996 16.784 1.53596 16.08C0.703964 15.344 0.287964 14.144 0.287964 12.48C0.287964 10.432 1.11996 8.448 2.78396 6.528C4.47996 4.576 6.63996 3.008 9.26396 1.824C11.888 0.608001 14.512 0 17.136 0C17.584 0 18.224 0.0320005 19.056 0.0960016L19.488 29.616L29.568 0.24H32.928L19.584 36H12.672L11.904 3.216Z" fill="black"/>
<path d="M39.9472 9.408C38.8912 9.408 37.9952 9.04 37.2592 8.304C36.5232 7.568 36.1552 6.672 36.1552 5.616C36.1552 4.56 36.5232 3.664 37.2592 2.928C37.9952 2.16 38.8912 1.776 39.9472 1.776C41.0032 1.776 41.8992 2.16 42.6352 2.928C43.4032 3.664 43.7872 4.56 43.7872 5.616C43.7872 6.672 43.4032 7.568 42.6352 8.304C41.8992 9.04 41.0032 9.408 39.9472 9.408ZM36.6832 36.288C35.1472 36.288 33.8992 35.808 32.9392 34.848C32.0112 33.888 31.5472 32.448 31.5472 30.528C31.5472 29.728 31.6752 28.688 31.9312 27.408L35.1952 12H42.1072L38.6512 28.32C38.5232 28.8 38.4592 29.312 38.4592 29.856C38.4592 30.496 38.6032 30.96 38.8912 31.248C39.2112 31.504 39.7232 31.632 40.4272 31.632C41.3552 31.632 42.2192 31.248 43.0192 30.48C43.8192 29.68 44.3952 28.656 44.7472 27.408H46.7632C45.5792 30.864 44.0592 33.216 42.2032 34.464C40.3472 35.68 38.5072 36.288 36.6832 36.288Z" fill="black"/>
<path d="M53.9921 36.288C51.6241 36.288 49.7841 35.68 48.4721 34.464C47.1601 33.216 46.5041 31.28 46.5041 28.656C46.5041 26.448 46.9361 24.016 47.8001 21.36C48.6961 18.704 50.1041 16.416 52.0241 14.496C53.9761 12.544 56.4401 11.568 59.4161 11.568C61.3361 11.568 62.6961 11.984 63.4961 12.816C64.3281 13.648 64.7441 14.704 64.7441 15.984C64.7441 17.104 64.5041 17.968 64.0241 18.576C63.5441 19.184 62.9361 19.488 62.2001 19.488C61.6561 19.488 61.0961 19.296 60.5201 18.912C60.9041 17.856 61.0961 16.912 61.0961 16.08C61.0961 15.472 60.9841 14.992 60.7601 14.64C60.5361 14.288 60.2001 14.112 59.7521 14.112C58.7921 14.112 57.8321 14.896 56.8721 16.464C55.9121 18.032 55.1281 19.936 54.5201 22.176C53.9121 24.416 53.6081 26.432 53.6081 28.224C53.6081 29.792 53.8801 30.864 54.4241 31.44C54.9681 31.984 55.8481 32.256 57.0641 32.256C58.7921 32.256 60.2641 31.856 61.4801 31.056C62.7281 30.256 64.0881 29.04 65.5601 27.408H67.1921C63.6401 33.328 59.2401 36.288 53.9921 36.288Z" fill="black"/>
<path d="M72.702 36.288C71.166 36.288 69.918 35.808 68.958 34.848C68.03 33.888 67.566 32.448 67.566 30.528C67.566 29.728 67.694 28.688 67.95 27.408L70.83 13.92H69.246L69.63 12H71.214L72.654 5.376L79.758 4.416L78.126 12H81.006L80.622 13.92H77.742L74.67 28.32C74.542 28.8 74.478 29.312 74.478 29.856C74.478 30.496 74.622 30.96 74.91 31.248C75.23 31.504 75.742 31.632 76.446 31.632C77.374 31.632 78.238 31.248 79.038 30.48C79.838 29.68 80.414 28.656 80.766 27.408H82.782C81.598 30.864 80.078 33.216 78.222 34.464C76.366 35.68 74.526 36.288 72.702 36.288Z" fill="black"/>
<path d="M90.1548 36.192C87.7868 36.192 85.9148 35.584 84.5388 34.368C83.1628 33.152 82.4748 31.232 82.4748 28.608C82.4748 26.432 82.9228 24.016 83.8188 21.36C84.7148 18.704 86.1548 16.416 88.1388 14.496C90.1228 12.544 92.6188 11.568 95.6268 11.568C99.7228 11.568 101.771 14.128 101.771 19.248V19.296C101.867 19.328 102.043 19.344 102.299 19.344C103.355 19.344 104.571 19.072 105.947 18.528C107.323 17.952 107.657 18.1187 108.777 17.3187L108.421 19C107.493 19.992 107.979 19.6 106.475 20.304C105.003 20.976 103.387 21.456 101.627 21.744C101.371 24.656 100.715 27.2 99.6588 29.376C98.6028 31.552 97.2428 33.232 95.5788 34.416C93.9148 35.6 92.1068 36.192 90.1548 36.192ZM92.0748 31.872C92.8428 31.872 93.6108 31.44 94.3788 30.576C95.1468 29.68 95.8188 28.48 96.3948 26.976C96.9708 25.44 97.3868 23.744 97.6428 21.888C96.7788 21.696 96.3468 21.024 96.3468 19.872C96.3468 18.56 96.8428 17.696 97.8348 17.28C97.7708 16.224 97.6108 15.504 97.3548 15.12C97.0988 14.704 96.6508 14.496 96.0108 14.496C94.9548 14.496 93.9308 15.264 92.9388 16.8C91.9468 18.336 91.1468 20.176 90.5388 22.32C89.9308 24.464 89.6268 26.352 89.6268 27.984C89.6268 29.52 89.8028 30.56 90.1548 31.104C90.5068 31.616 91.1468 31.872 92.0748 31.872Z" fill="black"/>
<path d="M109.905 12H116.817L116.193 14.976C117.281 14.016 118.257 13.28 119.121 12.768C120.017 12.256 120.977 12 122.001 12C123.025 12 123.825 12.352 124.401 13.056C125.009 13.76 125.313 14.608 125.313 15.6C125.313 16.528 125.009 17.344 124.401 18.048C123.793 18.752 122.945 19.104 121.857 19.104C121.153 19.104 120.673 18.944 120.417 18.624C120.193 18.272 120.017 17.776 119.889 17.136C119.793 16.72 119.697 16.416 119.601 16.224C119.505 16.032 119.329 15.936 119.073 15.936C118.401 15.936 117.825 16.08 117.345 16.368C116.897 16.624 116.305 17.088 115.569 17.76L111.729 36H104.817L109.905 12Z" fill="black"/>
<path d="M151.318 36.768C147.702 36.768 145.046 35.856 143.35 34.032C141.654 32.208 140.806 29.184 140.806 24.96C140.806 21.6 141.366 17.984 142.486 14.112C143.638 10.24 145.462 6.928 147.958 4.176C150.486 1.392 153.686 0 157.558 0C159.958 0 161.894 0.528001 163.366 1.584C164.838 2.64 165.574 4.256 165.574 6.432C165.574 7.808 165.302 8.896 164.758 9.696C164.214 10.464 163.366 10.848 162.214 10.848C161.062 10.848 160.15 10.432 159.478 9.6C160.054 9.312 160.566 8.736 161.014 7.872C161.462 7.008 161.686 6.112 161.686 5.184C161.686 4.32 161.446 3.616 160.966 3.072C160.518 2.528 159.782 2.256 158.758 2.256C157.062 2.256 155.446 3.424 153.91 5.76C152.374 8.064 151.126 10.976 150.166 14.496C149.238 18.016 148.774 21.408 148.774 24.672C148.774 27.104 149.19 28.96 150.022 30.24C150.854 31.52 152.358 32.16 154.534 32.16C156.422 32.16 158.166 31.744 159.766 30.912C161.366 30.08 162.742 28.896 163.894 27.36L164.998 27.84C164.198 29.856 163.014 31.536 161.446 32.88C159.878 34.224 158.198 35.216 156.406 35.856C154.614 36.464 152.918 36.768 151.318 36.768Z" fill="black"/>
<path d="M181.225 0H186.265L180.457 9.072H176.857L181.225 0ZM173.017 36.288C170.649 36.288 168.809 35.68 167.497 34.464C166.185 33.216 165.529 31.28 165.529 28.656C165.529 26.448 165.961 24.016 166.825 21.36C167.689 18.704 169.097 16.416 171.049 14.496C173.001 12.544 175.481 11.568 178.489 11.568C182.009 11.568 183.769 13.104 183.769 16.176C183.769 17.968 183.257 19.616 182.233 21.12C181.209 22.624 179.849 23.84 178.153 24.768C176.457 25.664 174.649 26.176 172.729 26.304C172.665 27.264 172.633 27.904 172.633 28.224C172.633 29.792 172.905 30.864 173.449 31.44C173.993 31.984 174.873 32.256 176.089 32.256C177.817 32.256 179.289 31.856 180.505 31.056C181.753 30.256 183.113 29.04 184.585 27.408H186.217C182.665 33.328 178.265 36.288 173.017 36.288ZM173.113 24C174.297 23.936 175.417 23.52 176.473 22.752C177.561 21.984 178.425 21.008 179.065 19.824C179.737 18.64 180.073 17.392 180.073 16.08C180.073 14.768 179.673 14.112 178.873 14.112C177.721 14.112 176.585 15.12 175.465 17.136C174.377 19.152 173.593 21.44 173.113 24Z" fill="black"/>
<path d="M192.447 36.288C190.911 36.288 189.615 36 188.559 35.424C187.503 34.816 186.719 34.048 186.207 33.12C185.695 32.16 185.439 31.168 185.439 30.144C185.439 29.088 185.695 28.176 186.207 27.408C186.687 26.608 187.279 26.032 187.983 25.68C189.231 23.44 190.319 21.184 191.247 18.912C192.175 16.608 193.055 14.128 193.887 11.472L200.991 10.512C201.151 14.608 201.423 19.04 201.807 23.808C201.967 25.728 202.047 27.12 202.047 27.984C202.047 28.72 201.983 29.328 201.855 29.808C203.359 28.944 204.511 28.144 205.311 27.408H207.327C205.279 29.776 202.831 31.776 199.983 33.408C199.055 34.4 197.903 35.136 196.527 35.616C195.183 36.064 193.823 36.288 192.447 36.288ZM190.911 32.496C192.095 32.496 193.087 32.144 193.887 31.44C194.687 30.736 195.087 29.6 195.087 28.032C195.087 27.072 194.991 25.728 194.799 24C194.479 20.352 194.271 17.904 194.175 16.656C193.407 19.184 192.111 22.208 190.287 25.728C191.023 26.112 191.391 26.672 191.391 27.408C191.391 28.016 191.183 28.56 190.767 29.04C190.383 29.52 189.887 29.76 189.279 29.76C188.607 29.76 188.175 29.552 187.983 29.136C187.983 30.288 188.207 31.136 188.655 31.68C189.135 32.224 189.887 32.496 190.911 32.496Z" fill="black"/>
<path d="M213.463 36.288C211.639 36.288 210.119 35.664 208.903 34.416C207.687 33.168 207.079 31.216 207.079 28.56C207.079 26.192 207.543 23.712 208.471 21.12C209.431 18.496 210.839 16.288 212.695 14.496C214.583 12.672 216.823 11.76 219.415 11.76C220.727 11.76 221.703 11.984 222.343 12.432C222.983 12.88 223.303 13.472 223.303 14.208V14.544L223.831 12H230.743L227.287 28.32C227.159 28.8 227.095 29.312 227.095 29.856C227.095 31.232 227.751 31.92 229.063 31.92C229.959 31.92 230.727 31.504 231.367 30.672C232.039 29.84 232.567 28.752 232.951 27.408H234.967C233.783 30.864 232.311 33.216 230.551 34.464C228.823 35.68 227.079 36.288 225.319 36.288C223.975 36.288 222.887 35.92 222.055 35.184C221.255 34.416 220.775 33.312 220.615 31.872C219.687 33.184 218.647 34.256 217.495 35.088C216.375 35.888 215.031 36.288 213.463 36.288ZM216.583 31.632C217.383 31.632 218.167 31.264 218.935 30.528C219.735 29.76 220.279 28.72 220.567 27.408L222.871 16.56C222.871 16.144 222.711 15.744 222.391 15.36C222.071 14.944 221.575 14.736 220.903 14.736C219.623 14.736 218.471 15.488 217.447 16.992C216.423 18.464 215.623 20.256 215.047 22.368C214.471 24.448 214.183 26.288 214.183 27.888C214.183 29.488 214.407 30.512 214.855 30.96C215.335 31.408 215.911 31.632 216.583 31.632Z" fill="black"/>
<path d="M238.633 12H245.545L244.921 14.976C246.009 14.016 246.985 13.28 247.849 12.768C248.745 12.256 249.705 12 250.729 12C251.753 12 252.553 12.352 253.129 13.056C253.737 13.76 254.041 14.608 254.041 15.6C254.041 16.528 253.737 17.344 253.129 18.048C252.521 18.752 251.673 19.104 250.585 19.104C249.881 19.104 249.401 18.944 249.145 18.624C248.921 18.272 248.745 17.776 248.617 17.136C248.521 16.72 248.425 16.416 248.329 16.224C248.233 16.032 248.057 15.936 247.801 15.936C247.129 15.936 246.553 16.08 246.073 16.368C245.625 16.624 245.033 17.088 244.297 17.76L240.457 36H233.545L238.633 12Z" fill="black"/>
</svg>
